<svg width="26" height="26" viewBox="0 0 26 26" fill="none" xmlns="http://www.w3.org/2000/svg">
<path d="M23.6944 0.981201H2.30736C1.57481 0.981201 0.980957 1.57505 0.980957 2.30761V23.6946C0.980957 24.4272 1.57481 25.021 2.30736 25.021H23.6944C24.4269 25.021 25.0208 24.4272 25.0208 23.6946V2.30761C25.0208 1.57505 24.4269 0.981201 23.6944 0.981201Z" fill="#3D5A98"/>
<path d="M17.5663 25.0189V15.7097H20.6904L21.1575 12.0819H17.5663V9.76625C17.5663 8.71609 17.8588 7.99906 19.3639 7.99906H21.2855V4.74906C20.355 4.65226 19.4199 4.60615 18.4844 4.61093C15.7179 4.61093 13.8125 6.29687 13.8125 9.40671V12.0819H10.6885V15.7097H13.8125V25.0189H17.5663Z" fill="white"/>
</svg>
