<svg width="26" height="26" viewBox="0 0 26 26" fill="none" xmlns="http://www.w3.org/2000/svg">
<path d="M19.9062 0H6.09375C2.72826 0 0 2.72826 0 6.09375V19.9062C0 23.2717 2.72826 26 6.09375 26H19.9062C23.2717 26 26 23.2717 26 19.9062V6.09375C26 2.72826 23.2717 0 19.9062 0Z" fill="white"/>
<path d="M19.9062 0H6.09375C2.72826 0 0 2.72826 0 6.09375V19.9062C0 23.2717 2.72826 26 6.09375 26H19.9062C23.2717 26 26 23.2717 26 19.9062V6.09375C26 2.72826 23.2717 0 19.9062 0Z" fill="#1D9BF0"/>
<path d="M20.269 9.28393C20.2802 9.4451 20.2802 9.60628 20.2802 9.76899C20.2802 14.7249 16.5074 20.4407 9.60852 20.4407V20.4376C7.57049 20.4406 5.57467 19.8569 3.85938 18.7563C4.15587 18.7918 4.45345 18.8098 4.75211 18.8104C6.4413 18.8118 8.08191 18.2452 9.41027 17.2017C8.62763 17.1869 7.86918 16.9279 7.24093 16.4609C6.61269 15.9939 6.14606 15.3423 5.90627 14.5972C6.46818 14.7056 7.04749 14.6835 7.59952 14.5326C5.8498 14.179 4.59093 12.6417 4.59093 10.8562V10.8087C5.11254 11.0992 5.69631 11.2602 6.29312 11.2781C4.64516 10.1767 4.13715 7.98423 5.13226 6.27006C6.07381 7.42885 7.24864 8.37658 8.58039 9.05167C9.91215 9.72676 11.371 10.1141 12.8623 10.1885C12.7136 9.54854 12.7356 8.88071 12.926 8.25185C13.1164 7.623 13.4685 7.05515 13.9473 6.60511C15.4579 5.18507 17.8338 5.25789 19.2538 6.76771C20.0937 6.60189 20.8992 6.29397 21.6356 5.85721C21.3556 6.72563 20.7696 7.46279 19.9868 7.93152C20.7303 7.84384 21.4563 7.64482 22.1406 7.34114C21.6373 8.09496 21.0035 8.75281 20.269 9.28393Z" fill="white"/>
</svg>
